<?xml version="1.0" encoding="UTF-8"?>
<svg width="1200" height="800" viewBox="0 0 1200 800" fill="none" xmlns="http://www.w3.org/2000/svg">
  <!-- Background -->
  <rect width="1200" height="800" rx="12" fill="#1E293B"/>
  
  <!-- Toolbar -->
  <rect x="20" y="20" width="1160" height="60" rx="8" fill="#334155"/>
  <!-- Toolbar buttons -->
  <circle cx="60" cy="50" r="15" fill="#3B82F6"/>
  <circle cx="100" cy="50" r="15" fill="#6366F1"/>
  <circle cx="140" cy="50" r="15" fill="#8B5CF6"/>
  
  <!-- Main content area -->
  <rect x="20" y="100" width="850" height="680" rx="8" fill="#334155"/>
  
  <!-- Medical image placeholder -->
  <rect x="40" y="120" width="810" height="640" rx="4" fill="#1E293B"/>
  <!-- Image content simulation -->
  <path d="M240 280 Q445 200 650 440 T860 600" stroke="#3B82F6" stroke-width="2" fill="none"/>
  <path d="M240 320 Q445 240 650 480 T860 640" stroke="#3B82F6" stroke-width="2" fill="none"/>
  <circle cx="445" cy="360" r="120" stroke="#6366F1" stroke-width="2" fill="none"/>
  
  <!-- Sidebar -->
  <rect x="890" y="100" width="290" height="680" rx="8" fill="#334155"/>
  
  <!-- Patient info -->
  <rect x="910" y="120" width="250" height="100" rx="4" fill="#1E293B"/>
  <rect x="930" y="140" width="120" height="12" rx="2" fill="#64748B"/>
  <rect x="930" y="160" width="180" height="12" rx="2" fill="#64748B"/>
  <rect x="930" y="180" width="150" height="12" rx="2" fill="#64748B"/>
  
  <!-- Tools panel -->
  <rect x="910" y="240" width="250" height="200" rx="4" fill="#1E293B"/>
  <rect x="930" y="260" width="100" height="30" rx="4" fill="#3B82F6"/>
  <rect x="930" y="300" width="100" height="30" rx="4" fill="#6366F1"/>
  <rect x="930" y="340" width="100" height="30" rx="4" fill="#8B5CF6"/>
  <rect x="930" y="380" width="100" height="30" rx="4" fill="#EC4899"/>
  
  <!-- Measurements -->
  <rect x="910" y="460" width="250" height="300" rx="4" fill="#1E293B"/>
  <rect x="930" y="480" width="210" height="12" rx="2" fill="#64748B"/>
  <rect x="930" y="500" width="180" height="12" rx="2" fill="#64748B"/>
  <rect x="930" y="520" width="200" height="12" rx="2" fill="#64748B"/>
  <rect x="930" y="550" width="210" height="12" rx="2" fill="#64748B"/>
  <rect x="930" y="570" width="180" height="12" rx="2" fill="#64748B"/>
  <rect x="930" y="590" width="200" height="12" rx="2" fill="#64748B"/>
</svg> 